<svg xmlns="http://www.w3.org/2000/svg" xmlns:xlink="http://www.w3.org/1999/xlink" width="500" zoomAndPan="magnify" viewBox="0 0 375 374.999991" height="500" preserveAspectRatio="xMidYMid meet" version="1.2"><defs><clipPath id="e42aa74eeb"><path d="M 26.734375 24.1875 L 325.335938 24.1875 L 325.335938 322.789062 L 26.734375 322.789062 Z M 26.734375 24.1875 "/></clipPath><clipPath id="25bf5a2e11"><path d="M 46.234375 24.1875 L 305.835938 24.1875 C 316.605469 24.1875 325.335938 32.917969 325.335938 43.6875 L 325.335938 303.289062 C 325.335938 314.058594 316.605469 322.789062 305.835938 322.789062 L 46.234375 322.789062 C 35.464844 322.789062 26.734375 314.058594 26.734375 303.289062 L 26.734375 43.6875 C 26.734375 32.917969 35.464844 24.1875 46.234375 24.1875 Z M 46.234375 24.1875 "/></clipPath><clipPath id="7dfef54696"><path d="M 49.664062 52.210938 L 348.265625 52.210938 L 348.265625 350.8125 L 49.664062 350.8125 Z M 49.664062 52.210938 "/></clipPath><clipPath id="dcda1b3022"><path d="M 69.164062 52.210938 L 328.765625 52.210938 C 339.535156 52.210938 348.265625 60.941406 348.265625 71.710938 L 348.265625 331.3125 C 348.265625 342.082031 339.535156 350.8125 328.765625 350.8125 L 69.164062 350.8125 C 58.394531 350.8125 49.664062 342.082031 49.664062 331.3125 L 49.664062 71.710938 C 49.664062 60.941406 58.394531 52.210938 69.164062 52.210938 Z M 69.164062 52.210938 "/></clipPath><clipPath id="d531d18356"><path d="M 77.308594 111.984375 L 132 111.984375 L 132 289.84375 L 77.308594 289.84375 Z M 77.308594 111.984375 "/></clipPath><clipPath id="bdcc516187"><path d="M 262 111.984375 L 317 111.984375 L 317 289.84375 L 262 289.84375 Z M 262 111.984375 "/></clipPath></defs><g id="8ba569743a"><g clip-rule="nonzero" clip-path="url(#e42aa74eeb)"><g clip-rule="nonzero" clip-path="url(#25bf5a2e11)"><path style=" stroke:none;fill-rule:nonzero;fill:#070a0e;fill-opacity:1;" d="M 26.734375 24.1875 L 325.335938 24.1875 L 325.335938 322.789062 L 26.734375 322.789062 Z M 26.734375 24.1875 "/></g></g><g clip-rule="nonzero" clip-path="url(#7dfef54696)"><g clip-rule="nonzero" clip-path="url(#dcda1b3022)"><path style=" stroke:none;fill-rule:nonzero;fill:#f05023;fill-opacity:1;" d="M 49.664062 52.210938 L 348.265625 52.210938 L 348.265625 350.8125 L 49.664062 350.8125 Z M 49.664062 52.210938 "/></g></g><g clip-rule="nonzero" clip-path="url(#d531d18356)"><path style=" stroke:none;fill-rule:evenodd;fill:#efefef;fill-opacity:1;" d="M 126.734375 131.746094 L 131.675781 131.746094 L 131.675781 111.984375 L 126.734375 111.984375 C 110.363281 111.984375 97.089844 125.257812 97.089844 141.628906 L 97.089844 176.210938 C 97.089844 179.320312 95.625 182.25 93.136719 184.117188 L 81.28125 193.007812 C 78.90625 194.789062 77.460938 197.539062 77.335938 200.503906 C 77.214844 203.46875 78.429688 206.328125 80.644531 208.300781 L 93.773438 219.964844 C 95.882812 221.839844 97.089844 224.53125 97.089844 227.351562 L 97.089844 260.199219 C 97.089844 276.570312 110.363281 289.84375 126.734375 289.84375 L 131.675781 289.84375 L 131.675781 270.082031 L 126.734375 270.082031 C 121.277344 270.082031 116.851562 265.65625 116.851562 260.199219 L 116.851562 227.351562 C 116.851562 218.882812 113.230469 210.820312 106.902344 205.195312 L 102.8125 201.5625 L 104.996094 199.925781 C 112.460938 194.328125 116.851562 185.542969 116.851562 176.210938 L 116.851562 141.628906 C 116.851562 136.171875 121.277344 131.746094 126.734375 131.746094 Z M 126.734375 131.746094 "/></g><g clip-rule="nonzero" clip-path="url(#bdcc516187)"><path style=" stroke:none;fill-rule:evenodd;fill:#efefef;fill-opacity:1;" d="M 267.109375 131.746094 L 262.167969 131.746094 L 262.167969 111.984375 L 267.109375 111.984375 C 283.480469 111.984375 296.753906 125.257812 296.753906 141.628906 L 296.753906 176.210938 C 296.753906 179.320312 298.21875 182.25 300.707031 184.117188 L 312.5625 193.007812 C 314.933594 194.789062 316.382812 197.539062 316.507812 200.503906 C 316.628906 203.46875 315.414062 206.328125 313.199219 208.300781 L 300.070312 219.964844 C 297.960938 221.839844 296.753906 224.53125 296.753906 227.351562 L 296.753906 260.199219 C 296.753906 276.570312 283.480469 289.84375 267.109375 289.84375 L 262.167969 289.84375 L 262.167969 270.082031 L 267.109375 270.082031 C 272.566406 270.082031 276.992188 265.65625 276.992188 260.199219 L 276.992188 227.351562 C 276.992188 218.882812 280.613281 210.820312 286.941406 205.195312 L 291.03125 201.5625 L 288.847656 199.925781 C 281.382812 194.328125 276.992188 185.542969 276.992188 176.210938 L 276.992188 141.628906 C 276.992188 136.171875 272.566406 131.746094 267.109375 131.746094 Z M 267.109375 131.746094 "/></g><g style="fill:#ffffff;fill-opacity:1;"><g transform="translate(145.316383, 261.701252)"><path style="stroke:none" d="M 107.25 -130.015625 L 62.25 0.359375 L 44.828125 0.359375 L 0 -130.015625 L 25.96875 -130.015625 C 42.09375 -83.054688 50.570312 -58.273438 51.40625 -55.671875 C 53.0625 -50.453125 54.78125 -43.691406 56.5625 -35.390625 C 58.21875 -43.453125 60.53125 -51.578125 63.5 -59.765625 L 87.5 -130.015625 Z M 107.25 -130.015625 "/></g></g></g></svg>